<svg xmlns="http://www.w3.org/2000/svg" xmlns:xlink="http://www.w3.org/1999/xlink" viewBox="0 0 30 30" enable-background="new 0 0 30 30"><style type="text/css">.st0{clip-path:url(#SVGID_2_);} .st1{fill-rule:evenodd;clip-rule:evenodd;}</style><g id="iconmonstr-facebook-5.psd"><defs><path id="SVGID_1_" d="M0 0h30v30H0z"/></defs><clipPath id="SVGID_2_"><use xlink:href="#SVGID_1_" overflow="visible"/></clipPath><g id="iconmonstr" class="st0"><path id="facebook-5" d="M12.5 10.4c0 1.7 0 2.1 0 2.1H10V15h2.5v7.5h3.8V15h2.3l.2-2.5h-2.5s0-.5 0-1c0-.6.1-.8.7-.8.5 0 1.8 0 1.8 0V7.5s-2.6 0-3 0c-2.3 0-3.3 1-3.3 2.9zM15 0C6.7 0 0 6.7 0 15s6.7 15 15 15 15-6.7 15-15S23.3 0 15 0zm0 27.5C8.1 27.5 2.5 21.9 2.5 15S8.1 2.5 15 2.5 27.5 8.1 27.5 15 21.9 27.5 15 27.5z" class="st1"/></g></g></svg>