<svg xmlns="http://www.w3.org/2000/svg" xmlns:xlink="http://www.w3.org/1999/xlink" viewBox="0 0 30 30" enable-background="new 0 0 30 30"><style type="text/css">.st0{clip-path:url(#SVGID_2_);} .st1{fill-rule:evenodd;clip-rule:evenodd;}</style><g id="iconmonstr-instagram-10.psd"><defs><path id="SVGID_1_" d="M0 0h30v30H0z"/></defs><clipPath id="SVGID_2_"><use xlink:href="#SVGID_1_" overflow="visible"/></clipPath><g id="iconmonstr" class="st0"><path id="instagram-10" d="M20.8 7.5H9.2c-1 0-1.7.8-1.7 1.7v11.5c0 1 .8 1.7 1.7 1.7h11.5c1 0 1.7-.8 1.7-1.7V9.2c.1-.9-.7-1.7-1.6-1.7zM15 12.1c1.6 0 2.9 1.3 2.9 2.9s-1.3 2.9-2.9 2.9-2.9-1.3-2.9-2.9 1.3-2.9 2.9-2.9zm5.6 7.9c0 .3-.3.6-.6.6H10c-.3 0-.6-.3-.6-.6v-6.3h1.2c-.1.2-.1.4-.1.6 0 .2 0 .4 0 .6 0 2.6 2.1 4.6 4.6 4.6s4.6-2.1 4.6-4.6c0-.2 0-.4 0-.6 0-.2-.1-.4-.1-.6h1.2V20zm0-8.7c0 .3-.3.6-.6.6h-1.4c-.3 0-.6-.3-.6-.6V10c0-.3.3-.6.6-.6H20c.3 0 .6.3.6.6v1.3zM15 0C6.7 0 0 6.7 0 15s6.7 15 15 15 15-6.7 15-15S23.3 0 15 0zm0 27.5C8.1 27.5 2.5 21.9 2.5 15S8.1 2.5 15 2.5 27.5 8.1 27.5 15 21.9 27.5 15 27.5z" class="st1"/></g></g></svg>