<svg xmlns="http://www.w3.org/2000/svg" xmlns:xlink="http://www.w3.org/1999/xlink" viewBox="0 0 30 30" enable-background="new 0 0 30 30"><style type="text/css">.st0{clip-path:url(#SVGID_2_);} .st1{fill-rule:evenodd;clip-rule:evenodd;}</style><g id="iconmonstr-vk-5.psd"><defs><path id="SVGID_1_" d="M0 0h30v30H0z"/></defs><clipPath id="SVGID_2_"><use xlink:href="#SVGID_1_" overflow="visible"/></clipPath><g id="iconmonstr" class="st0"><path id="vk-5" d="M15 0C6.7 0 0 6.7 0 15s6.7 15 15 15 15-6.7 15-15S23.3 0 15 0zm0 27.5C8.1 27.5 2.5 21.9 2.5 15S8.1 2.5 15 2.5 27.5 8.1 27.5 15 21.9 27.5 15 27.5zm5.9-10.1c-1.1-1-1.1-1-.2-2.2 1.1-1.5 2.6-3.3 1.3-3.3-.3 0-.1 0-2.5 0-.5 0-.5.3-.7.7-.6 1.5-1.8 3.4-2.3 3.1-.5-.3-.3-1.5-.2-3.3 0-.5 0-.8-.7-1-.4-.1-.8-.1-1.1-.1-1.4 0-2.4.6-1.8.7 1 .2.9 2.3.7 3.2-.4 1.6-1.9-1.3-2.5-2.7-.2-.3-.2-.6-.7-.6-.3 0-1.6 0-2 0-.3 0-.5.1-.5.3 0 .4 1.8 4.2 3.6 6.1 1.7 1.9 3.4 1.7 4.6 1.7.4 0 .5-.3.5-.6 0-1.2.4-1.8 1.3-1 .9.9 1.1 1.6 2.3 1.6.4 0 1.6 0 2 0 .5 0 .7-.2.7-.4-.2-.6-1.1-1.5-1.8-2.2z" class="st1"/></g></g></svg>