<svg id="Слой_1" data-name="Слой 1" xmlns="http://www.w3.org/2000/svg" xmlns:xlink="http://www.w3.org/1999/xlink" viewBox="0 0 26 26"><defs><style>.cls-1{fill:none;}.cls-2{clip-path:url(#clip-path);}</style><clipPath id="clip-path"><rect class="cls-1" width="26" height="26"/></clipPath></defs><title>WhatsApp</title><g id="whatsapp.psd"><g class="cls-2"><g id="Shape_1" data-name="Shape 1"><path d="M19.26,14.95c-.05,0-1.95-1-2.28-1.08a1.25,1.25,0,0,0-.44-.11.75.75,0,0,0-.64.37c-.19.28-.76,1-.94,1.15,0,0-.05.05-.07.05l-.41-.16a10,10,0,0,1-3.79-3.36c0-.05,0-.07,0-.07s.07-.09.11-.12a3.46,3.46,0,0,0,.32-.37l.16-.18a1.49,1.49,0,0,0,.3-.5l0-.09a.91.91,0,0,0,0-.83c-.05-.09-.85-2-.94-2.23-.21-.5-.48-.73-.85-.73H9.64a4.47,4.47,0,0,0-1.57.41A3.29,3.29,0,0,0,6.84,9.92a6,6,0,0,0,1.31,3.33.24.24,0,0,1,.05.07,12.26,12.26,0,0,0,5.31,4.6,8.76,8.76,0,0,0,3.2.81h0a3.88,3.88,0,0,0,.51,0l.09,0A3.36,3.36,0,0,0,19.67,17a2.57,2.57,0,0,0,.14-1.73A1.39,1.39,0,0,0,19.26,14.95ZM13.27,0A12.73,12.73,0,0,0,.5,12.68a12.49,12.49,0,0,0,1.75,6.4L.05,25.56a.33.33,0,0,0,.07.34A.35.35,0,0,0,.37,26a.22.22,0,0,0,.11,0l6.76-2.14A12.8,12.8,0,0,0,26,13.53V11.81A12.78,12.78,0,0,0,13.27,0Zm0,22.71A10.08,10.08,0,0,1,7.69,21,.34.34,0,0,0,7.52,21a.22.22,0,0,0-.11,0L4,22.09l1.1-3.22a.31.31,0,0,0-.05-.3,9.91,9.91,0,0,1-1.93-5.89,10.12,10.12,0,1,1,10.12,10Z"/></g></g></g></svg>